<?xml version="1.0" encoding="UTF-8" standalone="no"?>
<svg
   xmlns:dc="http://purl.org/dc/elements/1.1/"
   xmlns:cc="http://creativecommons.org/ns#"
   xmlns:rdf="http://www.w3.org/1999/02/22-rdf-syntax-ns#"
   xmlns:svg="http://www.w3.org/2000/svg"
   xmlns="http://www.w3.org/2000/svg"
   xmlns:sodipodi="http://sodipodi.sourceforge.net/DTD/sodipodi-0.dtd"
   xmlns:inkscape="http://www.inkscape.org/namespaces/inkscape"
   viewBox="0 0 602.02197 602.02386"
   height="602.02386"
   width="602.02197"
   xml:space="preserve"
   id="svg5640"
   version="1.1"
   sodipodi:docname="Zeichen_237_-_Sonderweg_Radfahrer,_StVO_1992.svg"
   inkscape:version="0.92.3 (2405546, 2018-03-11)"><sodipodi:namedview
     pagecolor="#ffffff"
     bordercolor="#666666"
     borderopacity="1"
     objecttolerance="10"
     gridtolerance="10"
     guidetolerance="10"
     inkscape:pageopacity="0"
     inkscape:pageshadow="2"
     inkscape:window-width="2500"
     inkscape:window-height="1383"
     id="namedview19"
     showgrid="false"
     inkscape:zoom="1.0016214"
     inkscape:cx="181.92099"
     inkscape:cy="120.12384"
     inkscape:window-x="1980"
     inkscape:window-y="594"
     inkscape:window-maximized="1"
     inkscape:current-layer="g5648" /><metadata
     id="metadata5646"><rdf:RDF><cc:Work
         rdf:about=""><dc:format>image/svg+xml</dc:format><dc:type
           rdf:resource="http://purl.org/dc/dcmitype/StillImage" /><dc:title /></cc:Work></rdf:RDF></metadata><defs
     id="defs5644" /><g
     transform="matrix(1.3333333,0,0,-1.3333333,0,602.02389)"
     id="g5648"><g
       id="g5650"><path
         style="fill:#000000;fill-opacity:1;fill-rule:evenodd;stroke:none;stroke-width:1.33333325"
         d="m 301.00977,0 c -25.5365,1.6666666e-4 -51.07235,3.5794273 -77.79102,10.746094 -6.44286,1.727209 -12.71916,3.602818 -18.84961,5.630859 l 0.17969,0.466797 c 6.11394,-2.021407 12.37397,-3.892711 18.80078,-5.615234 53.35866,-14.3173334 101.95693,-14.2974844 155.32227,-0.02149 53.36399,14.318667 95.44319,38.625361 134.50585,77.69336 39.04667,39.041324 63.33834,81.099364 77.625,134.443354 14.296,53.38 14.296,101.95256 0,155.33789 -14.292,53.344 -38.59935,95.42224 -77.66601,134.49024 -39.048,39.04134 -81.10085,63.32719 -134.46484,77.64454 -53.36534,14.26666 -101.95827,14.29193 -155.32227,-0.0254 C 170.01628,576.49368 127.9593,552.20735 88.917969,513.16602 49.84997,474.09802 25.536083,432.02158 11.21875,378.65625 -3.078583,325.31758 -3.079109,276.69804 11.212891,223.35938 15.806706,206.23845 21.434759,190.28758 28.240234,175.2207 l -0.458984,-0.17968 c -6.811831,15.08738 -12.444284,31.0576 -17.041016,48.19336 -14.3186659,53.41066 -14.3186659,102.1393 0,155.55664 14.333333,53.43733 38.696408,95.61047 77.816407,134.73046 39.098669,39.09867 81.250639,63.43658 134.667969,77.75391 53.432,14.33867 102.13893,14.31801 155.57227,0.0273 53.43733,-14.33866 95.59469,-38.68258 134.69335,-77.78125 39.12,-39.11999 63.48355,-81.29165 77.79688,-134.70898 14.312,-53.45733 14.312,-102.14147 0,-155.60547 C 576.96978,169.79637 552.63125,127.64607 513.53125,88.552734 474.41258,49.427402 432.23473,25.063276 378.80273,10.724609 352.0834,3.5786096 326.54626,-1.6666666e-4 301.00977,0 Z"
         transform="matrix(0.75000002,0,0,-0.75000002,0,451.51793)"
         id="path5652"
         inkscape:connector-curvature="0" /><path
         id="path5654"
         style="display:inline;fill:#ffffff;fill-opacity:1;fill-rule:evenodd;stroke:none"
         d="m 66.652,384.842 c 29.301,29.301 60.852,47.531 100.86,58.254 40.019,10.738 76.468,10.723 116.492,0.016 40.023,-10.739 71.582,-28.969 100.879,-58.27 29.289,-29.281 47.504,-60.824 58.219,-100.832 10.722,-40.035 10.722,-76.469 0.003,-116.508 C 432.383,127.498 414.152,95.94 384.852,66.639 355.566,37.358 324.027,19.143 284.008,8.405 243.984,-2.298 207.535,-2.314 167.512,8.424 127.512,19.147 95.973,37.358 66.688,66.643 37.387,95.944 19.156,127.502 8.414,167.526 c -10.723,40.004 -10.723,76.468 0,116.476 10.734,40.016 28.953,71.555 58.238,100.84 z"
         inkscape:connector-curvature="0" /><path
         style="display:inline;fill:#154889;fill-opacity:1;fill-rule:evenodd;stroke:none;stroke-width:1.33333325"
         d="m 301.02344,14.552734 c -24.30267,0.0033 -48.60587,3.413709 -74.03321,10.234375 -6.38628,1.706726 -12.60296,3.564029 -18.66601,5.582032 l -5.65234,9.566406 9.98242,23.460937 -28.95313,11.482422 10.98242,29.451174 -29.45117,11.48242 21.96485,13.47852 -18.47071,5.99023 -16.47265,2.99414 -1,18.96875 -7.98633,18.9707 -13.97656,-4.49414 -16.97266,3.99414 -24.960938,-9.48437 -18.46875,24.95898 -27.570313,-10.83007 c -6.635588,14.58567 -12.101824,30.03563 -16.537109,46.63476 -13.625333,50.83333 -13.625333,97.20378 0,148.03711 13.588,50.85333 36.797918,90.99624 74.03125,128.24023 37.21867,37.208 77.31321,60.37409 128.17188,73.96875 50.85999,13.64 97.22383,13.63954 148.0625,0.0195 50.85466,-13.59334 90.97422,-36.78034 128.21289,-74.01368 37.21333,-37.21333 60.37547,-77.36002 73.99414,-128.19336 13.61466,-50.87999 13.61476,-97.19865 -0.004,-148.08398 C 563.63533,176.14075 540.49992,136.01607 503.28125,98.802734 466.04658,61.562735 425.90154,38.354432 375.04688,24.759766 349.62754,17.952432 325.3261,14.549401 301.02344,14.552734 Z"
         transform="matrix(0.75000002,0,0,-0.75000002,0,451.51793)"
         id="path5656"
         inkscape:connector-curvature="0" /><path
         id="path5658"
         style="fill:#ffffff;fill-opacity:1;fill-rule:nonzero;stroke:none"
         d="m 342.988,136.233 c -27.863,-7.188 -56.285,9.57 -63.476,37.433 h 53.703 c 0.922,0 1.816,0.196 2.648,0.559 3.289,1.465 4.77,5.312 3.289,8.602 l -24.027,53.792 c 0.602,0.192 1.203,0.352 1.809,0.512 27.851,7.192 56.273,-9.558 63.476,-37.422 7.188,-27.863 -9.57,-56.285 -37.422,-63.472 z m -39.8,95.152 19.98,-44.703 h -45.316 c 0,18.316 9.636,35.293 25.336,44.703 z m -38.352,-44.703 h -13.027 l 32.562,86.832 13.492,-30.172 c -20.41,-11.558 -33.027,-33.199 -33.027,-56.66 z m -26.68,0.695 -81.554,90.473 h 115.48 z m -69.14,-22.199 c -11.879,-26.215 -42.746,-37.82 -68.961,-25.953 -26.203,11.879 -37.821,42.758 -25.942,68.961 9.821,21.672 33.086,33.937 56.512,29.797 l -15.277,-49.367 c -1.075,-3.45 0.851,-7.09 4.289,-8.157 3.433,-1.058 7.086,0.864 8.144,4.289 l 15.293,49.379 c 26.199,-11.867 37.817,-42.746 25.942,-68.949 z m 222.859,41.688 c -11.148,34.199 -47.91,52.882 -82.098,41.73 l -18.898,42.281 4.891,13.028 h 14.656 v 13.015 h -55.352 c -1.511,0 -2.824,-1.023 -3.176,-2.492 -0.421,-1.754 0.665,-3.504 2.415,-3.926 l 27.542,-6.601 -4.878,-13.024 H 160.641 l 5.222,16.871 c 1.696,5.461 6.735,9.172 12.446,9.172 h 21.402 v 13.028 h -21.402 c -11.422,0 -21.512,-7.43 -24.883,-18.344 l -18.918,-61.106 c -30.356,6.164 -60.848,-9.91 -72.918,-38.433 -14.02,-33.121 1.48,-71.34 34.598,-85.356 33.121,-14.015 71.335,1.469 85.355,34.586 14.016,33.121 -1.469,71.34 -34.602,85.356 l 5.18,16.726 76.988,-85.422 c 2.473,-2.742 5.985,-4.289 9.672,-4.289 h 27.375 c 0.489,-2.437 1.125,-4.824 1.891,-7.168 11.148,-34.203 47.91,-52.886 82.098,-41.734 34.203,11.137 52.871,47.898 41.734,82.102"
         inkscape:connector-curvature="0" /></g><g
       inkscape:groupmode="layer"
       id="layer1"
       inkscape:label="break" /></g></svg>